<?xml version="1.0" encoding="UTF-8"?>
<svg width="1200pt" height="1200pt" version="1.1" viewBox="0 0 1200 1200" xmlns="http://www.w3.org/2000/svg">
 <g fill="#cc2f43">
  <path d="m823.15 344.06-223.15 223.14-223.16-223.14-32.785 32.801 223.15 223.14-223.15 223.15 32.785 32.801 223.16-223.15 223.15 223.15 32.812-32.801-223.15-223.15 223.15-223.14z"/>
  <path d="m600 100c-275.7 0-500 224.3-500 500 0 275.71 224.3 500 500 500 275.71 0 500-224.29 500-500 0-275.7-224.29-500-500-500zm0 964.29c-256.01 0-464.29-208.29-464.29-464.29 0-256.01 208.27-464.29 464.29-464.29 256 0 464.29 208.27 464.29 464.29 0 256-208.29 464.29-464.29 464.29z"/>
 </g>
</svg>
